<svg width="31" height="31" viewBox="0 0 31 31" fill="none" xmlns="http://www.w3.org/2000/svg">
<path fill-rule="evenodd" clip-rule="evenodd" d="M23.2498 15.5C23.2498 15.7569 23.1477 16.0033 22.966 16.185C22.7844 16.3667 22.538 16.4688 22.281 16.4688L11.0571 16.4688L15.2169 20.6266C15.307 20.7167 15.3784 20.8236 15.4272 20.9413C15.4759 21.059 15.501 21.1851 15.501 21.3125C15.501 21.4399 15.4759 21.566 15.4272 21.6837C15.3784 21.8014 15.307 21.9083 15.2169 21.9984C15.1268 22.0884 15.0199 22.1599 14.9022 22.2086C14.7845 22.2574 14.6584 22.2825 14.531 22.2825C14.4037 22.2825 14.2775 22.2574 14.1598 22.2086C14.0422 22.1599 13.9352 22.0884 13.8452 21.9984L8.03265 16.1859C7.94244 16.0959 7.87086 15.989 7.82202 15.8713C7.77319 15.7536 7.74805 15.6274 7.74805 15.5C7.74805 15.3726 7.77319 15.2464 7.82202 15.1287C7.87086 15.011 7.94244 14.9041 8.03265 14.8141L13.8452 9.00163C14.0271 8.81972 14.2738 8.71753 14.531 8.71753C14.7883 8.71753 15.035 8.81972 15.2169 9.00163C15.3988 9.18353 15.501 9.43025 15.501 9.6875C15.501 9.94476 15.3988 10.1915 15.2169 10.3734L11.0571 14.5313L22.281 14.5313C22.538 14.5313 22.7844 14.6333 22.966 14.815C23.1477 14.9967 23.2498 15.2431 23.2498 15.5Z" fill="white"/>
</svg>
